# xmcd
#
# Track frame offsets:
#	150
#	11527
#	26967
#	37557
#	52370
#	65892
#	81220
#	94917
#	110282
#	124492
#	134607
#	145072
#	159555
#	172865
#	187777
#
# Disc length: 2641 seconds
#
# Revision: 1
# Processed by: cddbd v1.5.1PL0 Copyright (c) Steve Scherf et al.
# Submitted via: audiograbber 1.80
#
DISCID=ce0a4f0f
DTITLE=Various Artist - Country Dreams
DYEAR=1900
DGENRE=
TTITLE0=Six Days On The Road
TTITLE1=Talk To Me
TTITLE2=Your Little White Hands
TTITLE3=Harper Valley P.t.a
TTITLE4=Mama Told Me Blues
TTITLE5=You Can`t Kiss Me Like That
TTITLE6=Tenderly
TTITLE7=Why Don`t Cha
TTITLE8=Pretend
TTITLE9=After The Laughter
TTITLE10=Ballad Of The Green Berets
TTITLE11=If You`ve Never Seen Love Before
TTITLE12=Baby
TTITLE13=Naked Face
TTITLE14=Wings Of A Dove
EXTD=
EXTT0=
EXTT1=
EXTT2=
EXTT3=
EXTT4=
EXTT5=
EXTT6=
EXTT7=
EXTT8=
EXTT9=
EXTT10=
EXTT11=
EXTT12=
EXTT13=
EXTT14=
PLAYORDER=
